<svg width="15" height="17" viewBox="0 0 15 17" fill="none" xmlns="http://www.w3.org/2000/svg">
<path d="M14.6073 11.2259L13.1057 9.68746V5.89669C13.1257 4.48902 12.6451 3.12153 11.7528 2.04671C10.8604 0.971883 9.61652 0.262321 8.25077 0.0490395C7.45813 -0.057317 6.65235 0.00978452 5.88719 0.245867C5.12202 0.481949 4.41507 0.881583 3.8135 1.4181C3.21193 1.95463 2.72958 2.61569 2.39862 3.35721C2.06767 4.09872 1.89573 4.90361 1.89427 5.7182V9.68746L0.392731 11.2259C0.204127 11.4212 0.0762274 11.6689 0.0250223 11.938C-0.0261828 12.207 0.00157829 12.4854 0.104835 12.7385C0.208092 12.9915 0.382263 13.2079 0.605575 13.3607C0.828887 13.5134 1.09143 13.5957 1.36039 13.5972H4.16325V13.8862C4.20222 14.7491 4.5753 15.561 5.20075 16.1441C5.8262 16.7272 6.65301 17.0339 7.5 16.997C8.34699 17.0339 9.1738 16.7272 9.79925 16.1441C10.4247 15.561 10.7978 14.7491 10.8367 13.8862V13.5972H13.6396C13.9086 13.5957 14.1711 13.5134 14.3944 13.3607C14.6177 13.2079 14.7919 12.9915 14.8952 12.7385C14.9984 12.4854 15.0262 12.207 14.975 11.938C14.9238 11.6689 14.7959 11.4212 14.6073 11.2259ZM9.16837 13.8862C9.12211 14.295 8.92282 14.6699 8.61203 14.9327C8.30124 15.1956 7.9029 15.3261 7.5 15.2971C7.0971 15.3261 6.69876 15.1956 6.38797 14.9327C6.07718 14.6699 5.87789 14.295 5.83163 13.8862V13.5972H9.16837V13.8862ZM2.08613 11.8973L3.07047 10.8944C3.2266 10.7362 3.35047 10.5482 3.43495 10.341C3.51942 10.1339 3.56281 9.91177 3.56264 9.68746V5.7182C3.56309 5.14482 3.68392 4.57818 3.917 4.0563C4.15008 3.53442 4.49002 3.06938 4.91402 2.69238C5.3323 2.30623 5.82794 2.01731 6.36662 1.8456C6.90531 1.6739 7.47419 1.62351 8.03388 1.69794C8.9986 1.85754 9.87426 2.36686 10.4996 3.13213C11.125 3.89739 11.458 4.86709 11.4374 5.86269V9.68746C11.4361 9.91117 11.4782 10.1329 11.5612 10.3401C11.6442 10.5472 11.7666 10.7355 11.9212 10.8944L12.9139 11.8973H2.08613Z" fill="#E53F63"/>
</svg>
