<svg width="130" height="130" viewBox="0 0 130 130" fill="none" xmlns="http://www.w3.org/2000/svg">
<path d="M65 130C29.1005 130 0 100.899 0 65C0 29.1005 29.1005 0 65 0C100.899 0 130 29.1005 130 65C130 100.899 100.899 130 65 130ZM65 117C78.7913 117 92.0177 111.521 101.77 101.77C111.521 92.0177 117 78.7913 117 65C117 51.2087 111.521 37.9823 101.77 28.2304C92.0177 18.4786 78.7913 13 65 13C51.2087 13 37.9823 18.4786 28.2304 28.2304C18.4786 37.9823 13 51.2087 13 65C13 78.7913 18.4786 92.0177 28.2304 101.77C37.9823 111.521 51.2087 117 65 117ZM58.5195 91L30.94 63.4205L40.131 54.2295L58.5195 72.618L95.2835 35.8475L104.481 45.0385L58.5195 91Z" fill="#E53F63"/>
</svg>
