<svg width="95" height="16" viewBox="0 0 95 16" fill="none" xmlns="http://www.w3.org/2000/svg">
<path d="M70.1895 13H69.2402V6.89453C69.2402 6.38672 69.2559 5.90625 69.2871 5.45312C69.2051 5.53516 69.1133 5.62109 69.0117 5.71094C68.9102 5.80078 68.4453 6.18164 67.6172 6.85352L67.1016 6.18555L69.3691 4.43359H70.1895V13ZM79.444 13H73.8131V12.1621L76.069 9.89453C76.7565 9.19922 77.2096 8.70312 77.4284 8.40625C77.6471 8.10938 77.8112 7.82031 77.9205 7.53906C78.0299 7.25781 78.0846 6.95508 78.0846 6.63086C78.0846 6.17383 77.9459 5.8125 77.6686 5.54688C77.3913 5.27734 77.0065 5.14258 76.5143 5.14258C76.1588 5.14258 75.8209 5.20117 75.5006 5.31836C75.1842 5.43555 74.8307 5.64844 74.4401 5.95703L73.9245 5.29492C74.7135 4.63867 75.5729 4.31055 76.5026 4.31055C77.3073 4.31055 77.9381 4.51758 78.3952 4.93164C78.8522 5.3418 79.0807 5.89453 79.0807 6.58984C79.0807 7.13281 78.9284 7.66992 78.6237 8.20117C78.319 8.73242 77.7487 9.4043 76.9127 10.2168L75.0377 12.0508V12.0977H79.444V13ZM86.3489 6.44922C86.3489 6.99609 86.1946 7.44336 85.886 7.79102C85.5813 8.13867 85.1477 8.37109 84.5852 8.48828V8.53516C85.2727 8.62109 85.7825 8.83984 86.1145 9.19141C86.4466 9.54297 86.6126 10.0039 86.6126 10.5742C86.6126 11.3906 86.3294 12.0195 85.763 12.4609C85.1966 12.8984 84.3919 13.1172 83.3489 13.1172C82.8958 13.1172 82.4798 13.082 82.1009 13.0117C81.7259 12.9453 81.3606 12.8262 81.0052 12.6543V11.7285C81.3763 11.9121 81.7708 12.0527 82.1888 12.1504C82.6106 12.2441 83.0091 12.291 83.3841 12.291C84.8645 12.291 85.6048 11.7109 85.6048 10.5508C85.6048 9.51172 84.7884 8.99219 83.1555 8.99219H82.3118V8.1543H83.1673C83.8352 8.1543 84.3645 8.00781 84.7552 7.71484C85.1458 7.41797 85.3411 7.00781 85.3411 6.48438C85.3411 6.06641 85.1966 5.73828 84.9075 5.5C84.6223 5.26172 84.2337 5.14258 83.7415 5.14258C83.3665 5.14258 83.013 5.19336 82.6809 5.29492C82.3489 5.39648 81.97 5.58398 81.5442 5.85742L81.052 5.20117C81.4036 4.92383 81.8079 4.70703 82.2649 4.55078C82.7259 4.39062 83.2102 4.31055 83.718 4.31055C84.5501 4.31055 85.1966 4.50195 85.6575 4.88477C86.1184 5.26367 86.3489 5.78516 86.3489 6.44922ZM94.3027 11.0312H93.0312V13H92.0995V11.0312H87.9335V10.1816L91.9999 4.38672H93.0312V10.1465H94.3027V11.0312ZM92.0995 10.1465V7.29883C92.0995 6.74023 92.1191 6.10938 92.1581 5.40625H92.1112C91.9237 5.78125 91.748 6.0918 91.5839 6.33789L88.9062 10.1465H92.0995Z" fill="white"/>
<circle cx="41" cy="8" r="2" fill="white"/>
<circle cx="47" cy="8" r="2" fill="white"/>
<circle cx="53" cy="8" r="2" fill="white"/>
<circle cx="59" cy="8" r="2" fill="white"/>
<path d="M16.7196 5.28673C16.1851 5.0933 15.6201 4.99624 15.0512 5.00011C13.2115 5.00011 11.9122 5.92049 11.903 7.24167C11.8915 8.21229 12.8263 8.75927 13.5335 9.08357C14.259 9.41701 14.5016 9.62712 14.4993 9.92516C14.4947 10.3785 13.9198 10.584 13.3851 10.584C12.6504 10.584 12.2491 10.4824 11.6317 10.2278L11.4028 10.1216L11.1418 11.6426C11.5891 11.8276 12.3951 11.9863 13.2276 12C15.1835 12 16.4621 11.0853 16.477 9.67965C16.4931 8.90429 15.9872 8.31849 14.9225 7.83432C14.2751 7.5203 13.8738 7.31019 13.8738 6.9916C13.8738 6.70955 14.2176 6.40808 14.9363 6.40808C15.4145 6.39659 15.8899 6.48571 16.331 6.66958L16.5035 6.74609L16.7645 5.27645L16.7196 5.28673ZM21.4937 5.12344H20.0564C19.6092 5.12344 19.2723 5.24562 19.0768 5.6864L16.3126 11.9052H18.2685L18.6594 10.8855L21.0464 10.8878C21.1028 11.1264 21.2753 11.9052 21.2753 11.9052H23L21.4937 5.12344ZM9.25726 5.06634H11.1211L9.95521 11.8516H8.09364L9.25726 5.06406V5.06634ZM4.52572 8.80609L4.71889 9.74816L6.54022 5.12344H8.51447L5.58126 11.8961H3.61161L2.00185 6.16143C1.97578 6.06687 1.91455 5.98566 1.83053 5.93419C1.25032 5.63654 0.635562 5.41066 0 5.26161L0.0252962 5.11887H3.0252C3.43224 5.13486 3.75994 5.26161 3.86917 5.69325L4.52457 8.80951V8.80609H4.52572ZM19.1941 9.49808L19.9369 7.60023C19.9277 7.62079 20.0898 7.20856 20.1841 6.95391L20.3117 7.53971L20.7429 9.49694H19.1929V9.49808H19.1941Z" fill="white"/>
</svg>
