<svg width="17" height="15" viewBox="0 0 17 15" fill="none" xmlns="http://www.w3.org/2000/svg">
<path d="M15.3 5.83333V4.16667C15.3 3.94565 15.2104 3.73369 15.051 3.57741C14.8916 3.42113 14.6754 3.33333 14.45 3.33333H13.6V4.16667C13.6 4.38768 13.5104 4.59964 13.351 4.75592C13.1916 4.9122 12.9754 5 12.75 5C12.5246 5 12.3084 4.9122 12.149 4.75592C11.9896 4.59964 11.9 4.38768 11.9 4.16667V3.33333H5.1V4.16667C5.1 4.38768 5.01045 4.59964 4.85104 4.75592C4.69163 4.9122 4.47543 5 4.25 5C4.02457 5 3.80837 4.9122 3.64896 4.75592C3.48955 4.59964 3.4 4.38768 3.4 4.16667V3.33333H2.55C2.32457 3.33333 2.10837 3.42113 1.94896 3.57741C1.78955 3.73369 1.7 3.94565 1.7 4.16667V5.83333H15.3ZM15.3 7.5H1.7V12.5C1.7 12.721 1.78955 12.933 1.94896 13.0893C2.10837 13.2455 2.32457 13.3333 2.55 13.3333H14.45C14.6754 13.3333 14.8916 13.2455 15.051 13.0893C15.2104 12.933 15.3 12.721 15.3 12.5V7.5ZM13.6 1.66667H14.45C15.1263 1.66667 15.7749 1.93006 16.2531 2.3989C16.7313 2.86774 17 3.50363 17 4.16667V12.5C17 13.163 16.7313 13.7989 16.2531 14.2678C15.7749 14.7366 15.1263 15 14.45 15H2.55C1.8737 15 1.2251 14.7366 0.746878 14.2678C0.26866 13.7989 0 13.163 0 12.5V4.16667C0 3.50363 0.26866 2.86774 0.746878 2.3989C1.2251 1.93006 1.8737 1.66667 2.55 1.66667H3.4V0.833333C3.4 0.61232 3.48955 0.400358 3.64896 0.244078C3.80837 0.0877973 4.02457 0 4.25 0C4.47543 0 4.69163 0.0877973 4.85104 0.244078C5.01045 0.400358 5.1 0.61232 5.1 0.833333V1.66667H11.9V0.833333C11.9 0.61232 11.9896 0.400358 12.149 0.244078C12.3084 0.0877973 12.5246 0 12.75 0C12.9754 0 13.1916 0.0877973 13.351 0.244078C13.5104 0.400358 13.6 0.61232 13.6 0.833333V1.66667Z" fill="#E53F63"/>
</svg>
