<svg width="8" height="15" viewBox="0 0 8 15" fill="none" xmlns="http://www.w3.org/2000/svg">
<path d="M1.00169 14.0292C0.768035 14.0297 0.541599 13.9483 0.361687 13.7992C0.260428 13.7153 0.176727 13.6122 0.115375 13.4958C0.0540226 13.3795 0.0162263 13.2522 0.00415039 13.1212C-0.00792548 12.9902 0.00595655 12.8582 0.045001 12.7326C0.0840455 12.607 0.147485 12.4903 0.231687 12.3892L4.71169 7.02924L0.391687 1.65924C0.308621 1.55695 0.24659 1.43925 0.209158 1.31291C0.171726 1.18657 0.159632 1.05408 0.173572 0.923053C0.187511 0.792025 0.227208 0.665043 0.290381 0.549406C0.353555 0.43377 0.43896 0.331758 0.541687 0.249235C0.645153 0.158199 0.766319 0.0895314 0.897581 0.0475424C1.02884 0.00555335 1.16737 -0.00885035 1.30446 0.00523454C1.44155 0.0193194 1.57426 0.0615892 1.69424 0.129391C1.81422 0.197193 1.91889 0.289063 2.00169 0.399236L6.83169 6.39924C6.97877 6.57817 7.05917 6.80261 7.05917 7.03424C7.05917 7.26586 6.97877 7.4903 6.83169 7.66924L1.83169 13.6692C1.73137 13.7903 1.60394 13.8859 1.45973 13.9485C1.31552 14.011 1.15859 14.0387 1.00169 14.0292Z" fill="white"/>
</svg>
