<svg width="13" height="18" viewBox="0 0 13 18" fill="none" xmlns="http://www.w3.org/2000/svg">
<path d="M6.3 0C2.817 0 0 2.817 0 6.3C0 11.025 6.3 18 6.3 18C6.3 18 12.6 11.025 12.6 6.3C12.6 2.817 9.783 0 6.3 0ZM1.8 6.3C1.8 3.816 3.816 1.8 6.3 1.8C8.784 1.8 10.8 3.816 10.8 6.3C10.8 8.892 8.208 12.771 6.3 15.192C4.428 12.789 1.8 8.865 1.8 6.3Z" fill="white"/>
<path d="M6.30005 8.54999C7.54269 8.54999 8.55005 7.54263 8.55005 6.29999C8.55005 5.05735 7.54269 4.04999 6.30005 4.04999C5.05741 4.04999 4.05005 5.05735 4.05005 6.29999C4.05005 7.54263 5.05741 8.54999 6.30005 8.54999Z" fill="white"/>
</svg>
